<svg width="200" height="200" viewBox="0 0 200 200" fill="none" xmlns="http://www.w3.org/2000/svg">
<rect width="200" height="200" fill="#006D5A"/>
<path d="M76.3665 71.2106C76.3609 70.7229 76.4579 70.2394 76.6514 69.7914C76.845 69.3435 77.1306 68.9411 77.4898 68.6103C77.8252 68.2749 78.2235 68.0088 78.6621 67.8271C79.1006 67.6455 79.5707 67.5519 80.0455 67.5518C80.5259 67.5436 81.0029 67.6332 81.4473 67.8152C81.8918 67.9972 82.2944 68.2677 82.6305 68.6103C82.9737 68.9495 83.2437 69.3551 83.424 69.8023C83.6042 70.2495 83.6909 70.7288 83.6787 71.2106L83.4699 113.3C83.4699 116.496 83.3863 118.825 82.025 121.88C81.1228 123.938 79.844 125.811 78.254 127.402C76.6561 128.982 74.7674 130.24 72.6916 131.106C70.5518 132.011 68.2502 132.471 65.9265 132.461C65.4446 132.467 64.9663 132.376 64.5201 132.195C64.0739 132.013 63.6688 131.744 63.3288 131.403C62.9888 131.062 62.7208 130.657 62.5408 130.211C62.3608 129.764 62.2724 129.287 62.2808 128.806C62.2775 128.323 62.3706 127.844 62.5547 127.398C62.7388 126.951 63.0102 126.546 63.3532 126.205C63.6961 125.865 64.1036 125.596 64.5519 125.414C65.0002 125.232 65.4802 125.142 65.9641 125.147C67.2746 125.154 68.5725 124.892 69.7767 124.376C70.9541 123.871 72.0349 123.166 72.9714 122.293C73.9023 121.434 74.6606 120.405 75.2055 119.263C76.237 117.1 76.141 115.408 76.1493 113.133L76.3665 71.2106Z" fill="white"/>
<path d="M88.6607 84.7205C88.6622 82.4348 89.1201 80.1722 90.0078 78.065C90.8954 75.9578 92.195 74.0483 93.8306 72.448C95.4399 70.8783 97.3275 69.6207 99.3972 68.7392C102.587 67.3956 106.105 67.0308 109.504 67.6914C112.902 68.3519 116.026 70.0079 118.477 72.448C120.059 74.0426 121.325 75.92 122.211 77.9821C123.135 80.1075 123.601 82.4036 123.576 84.7205L123.555 91.6507C123.559 92.1349 123.466 92.615 123.282 93.0629C123.097 93.5107 122.824 93.9172 122.48 94.2585C122.136 94.5997 121.727 94.8689 121.277 95.0501C120.827 95.2313 120.345 95.3209 119.86 95.3137H99.2177C98.4531 95.3158 97.7138 95.5863 97.1289 96.0777C96.5441 96.5691 96.1512 97.2501 96.0189 98.0015C95.8317 99.5173 96.0748 101.055 96.7204 102.44C97.2454 103.63 97.9746 104.72 98.8752 105.661C99.7832 106.602 100.88 107.34 102.095 107.828C103.339 108.338 104.671 108.597 106.016 108.59C107.965 108.609 109.877 108.065 111.522 107.023C113.167 105.981 114.474 104.486 115.287 102.719L115.387 102.431C115.636 101.752 116.094 101.169 116.694 100.764C117.309 100.346 118.038 100.128 118.782 100.139C119.269 100.13 119.752 100.225 120.2 100.416C120.648 100.607 121.05 100.89 121.38 101.248C121.716 101.582 121.981 101.98 122.161 102.418C122.341 102.856 122.432 103.325 122.428 103.798C122.424 104.263 122.323 104.721 122.131 105.144L121.939 105.532C120.596 108.581 118.406 111.184 115.629 113.033C112.782 114.96 109.41 115.968 105.97 115.921C103.654 115.935 101.359 115.477 99.226 114.575C97.1593 113.71 95.2812 112.452 93.697 110.87C92.1112 109.269 90.8418 107.385 89.9553 105.315C89.0311 103.189 88.5658 100.893 88.5897 98.5766L88.6607 84.7164V84.7205ZM116.222 84.7581C116.327 84.5122 116.089 82.962 116.018 82.6286C115.884 82.0245 115.689 81.4354 115.437 80.87C114.913 79.6775 114.184 78.5858 113.282 77.6446C112.373 76.7058 111.276 75.9677 110.063 75.4776C107.583 74.4422 104.793 74.4281 102.302 75.4385C99.8118 76.4488 97.8231 78.4015 96.7705 80.87C96.2568 82.089 95.9927 83.3982 95.9938 84.7205V85.0623C96.0745 85.861 96.4492 86.6015 97.0455 87.1404C97.6419 87.6793 98.4173 87.9782 99.2218 87.9793H113.003C113.862 87.9771 114.685 87.6359 115.293 87.03C115.901 86.4241 116.244 85.6029 116.247 84.7456L116.222 84.7581Z" fill="white"/>
<path d="M128.612 84.7205C128.616 82.4347 129.075 80.1724 129.963 78.0655C130.852 75.9585 132.151 74.049 133.786 72.448C135.396 70.8783 137.283 69.6207 139.353 68.7392C142.543 67.3956 146.061 67.0308 149.46 67.6914C152.858 68.3519 155.982 70.0079 158.433 72.448C160.015 74.0426 161.281 75.92 162.166 77.9821C163.089 80.1082 163.554 82.4038 163.532 84.7205L163.377 115.141C163.378 117.463 162.89 119.759 161.945 121.88C161.038 123.94 159.753 125.812 158.157 127.401C156.559 128.983 154.668 130.241 152.591 131.106C150.453 132.007 148.154 132.465 145.834 132.452C145.352 132.458 144.874 132.368 144.428 132.186C143.982 132.004 143.576 131.735 143.236 131.394C142.896 131.054 142.628 130.648 142.448 130.202C142.268 129.756 142.18 129.278 142.188 128.797C142.185 128.315 142.278 127.836 142.462 127.389C142.646 126.943 142.918 126.537 143.261 126.197C143.604 125.856 144.011 125.587 144.459 125.405C144.908 125.224 145.388 125.133 145.872 125.139C147.213 125.139 148.541 124.878 149.78 124.368C151.001 123.88 152.105 123.142 153.021 122.201C153.933 121.263 154.674 120.172 155.209 118.979C155.562 118.202 155.808 117.381 155.94 116.537C156.074 115.641 155.439 113.395 152.892 114.491C150.689 115.435 148.314 115.913 145.918 115.896C143.639 115.903 141.382 115.461 139.275 114.594C137.169 113.727 135.255 112.453 133.644 110.845C132.062 109.253 130.795 107.377 129.911 105.315C128.995 103.189 128.536 100.895 128.566 98.5808L128.633 84.7205H128.612ZM135.874 98.5808C135.864 99.9066 136.137 101.219 136.676 102.431C137.198 103.624 137.928 104.714 138.831 105.653C139.738 106.594 140.836 107.333 142.051 107.82C143.287 108.33 144.613 108.592 145.951 108.59C147.273 108.596 148.583 108.351 149.814 107.87C151.001 107.411 152.086 106.724 153.008 105.848C153.914 104.977 154.654 103.949 155.193 102.815C155.752 101.639 156.07 100.364 156.128 99.0642L156.199 84.7247C156.212 83.3991 155.94 82.0861 155.401 80.8742C154.877 79.6816 154.148 78.59 153.246 77.6488C152.336 76.7089 151.238 75.9707 150.023 75.4818C148.166 74.7046 146.119 74.4957 144.143 74.8815C142.166 75.2674 140.349 76.2305 138.923 77.6488C137.989 78.571 137.246 79.6668 136.735 80.8742C136.213 82.091 135.944 83.4011 135.945 84.7247L135.874 98.5849V98.5808Z" fill="white"/>
<path d="M59.6332 114.558C57.4809 115.468 55.1638 115.926 52.8263 115.904C50.5099 115.917 48.215 115.459 46.0821 114.558C44.0151 113.694 42.1369 112.435 40.553 110.853C32.1843 102.456 36.5023 87.9917 49.9741 87.9917H59.8169C60.5783 87.9878 61.3142 87.7175 61.8964 87.2278C62.4786 86.7382 62.8703 86.0603 63.0032 85.3122C63.1905 83.7978 62.9474 82.2614 62.3016 80.8783C61.7808 79.6841 61.0512 78.5919 60.1468 77.6528C59.2385 76.7122 58.1413 75.9738 56.9271 75.4859C55.6891 74.9752 54.3622 74.7133 53.0226 74.7149C51.0742 74.696 49.1618 75.2394 47.5156 76.2796C45.8694 77.3198 44.5595 78.8125 43.7435 80.5782L43.6474 80.8699C43.3977 81.5498 42.9386 82.1332 42.3362 82.5368C41.7213 82.9548 40.9921 83.1731 40.2482 83.1619C39.7612 83.1713 39.2778 83.0774 38.83 82.8863C38.3822 82.6952 37.9802 82.4113 37.6507 82.0534C37.3191 81.72 37.0566 81.3246 36.8781 80.8898C36.6997 80.4551 36.6089 79.9895 36.6109 79.5197C36.6154 79.0554 36.7164 78.5971 36.9074 78.1737L37.112 77.8112C38.4532 74.7614 40.6414 72.1585 43.4178 70.3102C46.2591 68.3739 49.628 67.3556 53.0685 67.3931C55.3472 67.3863 57.6048 67.8294 59.7112 68.6969C61.8176 69.5645 63.7312 70.8393 65.3418 72.4479C66.9259 74.0403 68.1928 75.9182 69.0751 77.982C71.6851 83.9703 70.52 104.802 70.52 112.249C70.5285 112.73 70.4399 113.208 70.2596 113.655C70.0794 114.101 69.811 114.507 69.4706 114.848C69.1301 115.189 68.7245 115.458 68.2778 115.639C67.8311 115.821 67.3524 115.911 66.8702 115.904C66.3945 115.905 65.9234 115.812 65.484 115.631C65.0445 115.449 64.6456 115.182 64.3103 114.845C62.8905 113.499 62.6775 113.245 59.6165 114.558H59.6332ZM45.7396 105.657C46.6586 106.582 47.7531 107.316 48.9593 107.815C51.4792 108.843 54.3028 108.843 56.8227 107.815C59.267 106.794 61.2149 104.861 62.2515 102.427C62.7708 101.209 63.0392 99.8998 63.0408 98.5765V98.2306C62.9574 97.4329 62.5819 96.694 61.9861 96.1557C61.3904 95.6173 60.6164 95.3174 59.8127 95.3136H50.2079C43.4846 95.3136 41.9645 101.885 45.7396 105.657Z" fill="white"/>
</svg>
